<?xml version="1.0" encoding="UTF-8" standalone="no"?>
<!-- Created with Inkscape (http://www.inkscape.org/) -->

<svg
   width="6.599597mm"
   height="6.6461067mm"
   viewBox="0 0 6.599597 6.6461067"
   version="1.1"
   id="svg1"
   xmlns:xlink="http://www.w3.org/1999/xlink"
   xmlns="http://www.w3.org/2000/svg"
   xmlns:svg="http://www.w3.org/2000/svg">
  <defs
     id="defs1">
    <linearGradient
       id="linearGradient13">
      <stop
         style="stop-color:#7c7c7c;stop-opacity:1;"
         offset="0.55074877"
         id="stop13" />
      <stop
         style="stop-color:#bbb7b7;stop-opacity:1;"
         offset="0.70382696"
         id="stop14" />
      <stop
         style="stop-color:#e1e1e1;stop-opacity:1;"
         offset="0.90682197"
         id="stop15" />
    </linearGradient>
    <radialGradient
       xlink:href="#linearGradient13"
       id="radialGradient14"
       cx="41.453026"
       cy="26.458591"
       fx="41.453026"
       fy="26.458591"
       r="3.2997985"
       gradientTransform="matrix(1,0,0,1.0070472,0,-0.18646027)"
       gradientUnits="userSpaceOnUse" />
  </defs>
  <g
     id="layer1"
     transform="translate(-38.153226,-23.135539)">
    <path
       id="path1"
       style="fill:url(#radialGradient14);stroke:none;stroke-width:5.87458"
       d="m 41.557153,23.135539 c 0,0 -0.0073,0.0038 -0.01912,0.01137 0.01489,-9.82e-4 0.02325,-0.001 0.02325,-0.001 z m -0.01912,0.01137 c -0.0177,0.0012 -0.0447,0.0033 -0.07803,0.0072 -0.238026,0.03142 -0.674497,0.164095 -0.756027,0.429431 -0.0091,0.02706 -0.01861,0.05397 -0.02842,0.0801 -0.371473,-0.07803 -0.06253,-0.408761 -0.06253,-0.408761 l -0.0016,-0.0021 c 0,0 -0.67458,0.293402 -0.68368,0.666109 -5.36e-4,0.03376 -0.0024,0.06749 -0.0047,0.100253 -0.341312,0.01719 -0.186193,-0.33268 -0.166399,-0.374654 -0.04795,0.04017 -0.561191,0.47938 -0.476456,0.822688 0.0074,0.03129 0.01387,0.06282 0.01964,0.09353 -0.327301,0.108721 -0.270816,-0.27097 -0.262,-0.321428 -0.04424,0.06371 -0.415225,0.613662 -0.248563,0.91674 0.01515,0.02837 0.02936,0.05695 0.04289,0.08527 -0.303112,0.199613 -0.330212,-0.244429 -0.330212,-0.244429 l -0.0031,0.0016 c 0,0 -0.257068,0.689129 0.0083,0.954464 0.02324,0.02264 0.04596,0.04566 0.0677,0.06873 -0.228025,0.265272 -0.371331,-0.09323 -0.386539,-0.133841 0,0 -0.03874,0.302976 0.05013,0.574641 0.05696,0.157949 0.139846,0.288835 0.246496,0.341065 0.02722,0.01305 0.05412,0.02644 0.0801,0.04031 -0.132389,0.325865 -0.385213,0.02477 -0.409794,-0.0057 0.02241,0.07744 0.21571,0.711502 0.559656,0.767395 0.03265,0.0056 0.06497,0.01208 0.09663,0.01912 -0.02702,0.357788 -0.373398,0.133638 -0.397908,0.117306 0.02285,0.0363 0.398366,0.623688 0.753442,0.585494 0.03183,-0.0032 0.06337,-0.0056 0.09457,-0.0072 0.0673,0.360186 -0.356567,0.213424 -0.356567,0.213424 l 10e-4,0.0036 c 0,0 0.534698,0.49832 0.882117,0.366386 0.02951,-0.01142 0.05914,-0.0223 0.08837,-0.03204 0.154432,0.318488 -0.260123,0.299134 -0.285254,0.297656 0.04169,0.02187 0.658011,0.338582 0.944645,0.125057 0.02716,-0.02019 0.05442,-0.03947 0.08165,-0.05788 0.20766,0.23975 -0.100019,0.337165 -0.179317,0.357601 0.09847,0.0203 0.730181,0.137675 0.933793,-0.147278 0.01689,-0.02691 0.03561,-0.05251 0.05581,-0.077 0.0077,0.0045 0.01531,0.0088 0.02222,0.01344 0.16446,0.107269 0.08887,0.240415 0,0.321945 -0.03165,0.03027 -0.06343,0.05278 -0.08268,0.06511 0.0177,-0.0012 0.0451,-0.0033 0.07855,-0.0072 0.238026,-0.03142 0.674496,-0.164095 0.756026,-0.429431 0.0091,-0.02709 0.01859,-0.05394 0.02842,-0.0801 0.371411,0.07805 0.06201,0.40876 0.06201,0.40876 l 0.0021,0.0021 c 0,0 0.674579,-0.293402 0.683679,-0.666109 5.37e-4,-0.03376 0.0019,-0.06749 0.0041,-0.100252 0.340545,-0.01715 0.187268,0.331396 0.166915,0.374654 0.04979,-0.04176 0.560498,-0.480618 0.47594,-0.823206 -0.0074,-0.03126 -0.01387,-0.06232 -0.01964,-0.09302 0.323461,-0.107562 0.272309,0.261659 0.262516,0.31936 0.04809,-0.0694 0.41312,-0.613542 0.24753,-0.914673 -0.0151,-0.02828 -0.0294,-0.05704 -0.04289,-0.08527 0.303503,-0.200294 0.331246,0.24443 0.331246,0.24443 l 0.0026,-0.0016 c 0,0 0.257068,-0.689644 -0.0083,-0.95498 -0.02242,-0.02184 -0.04409,-0.04389 -0.06511,-0.06615 0.252295,-0.274323 0.397392,0.155029 0.397392,0.155029 v -0.0031 c 0,0 0.02514,-0.7714 -0.309542,-0.93586 -0.0273,-0.01309 -0.05404,-0.02691 -0.0801,-0.04082 0.130834,-0.32131 0.378973,-0.0319 0.40876,0.0047 -0.02611,-0.08925 -0.219217,-0.709055 -0.559139,-0.764294 -0.03265,-0.0056 -0.06498,-0.01209 -0.09663,-0.01912 0.02627,-0.363528 0.380186,-0.130929 0.398942,-0.118339 -0.01562,-0.02494 -0.395695,-0.62509 -0.754475,-0.586527 -0.03186,0.0032 -0.06334,0.0056 -0.09457,0.0072 -0.06677,-0.359485 0.357084,-0.212906 0.357084,-0.212906 l -5.17e-4,-0.0036 c 0,0 -0.535213,-0.49832 -0.882633,-0.366386 -0.02968,0.01146 -0.05898,0.02227 -0.08837,0.03204 -0.155486,-0.320457 0.264547,-0.298919 0.285254,-0.297657 -0.0413,-0.02166 -0.657907,-0.33866 -0.944645,-0.125057 -0.0272,0.02022 -0.0549,0.03945 -0.08217,0.05788 -0.207865,-0.23989 0.10066,-0.337209 0.179834,-0.357601 -0.09884,-0.02036 -0.730254,-0.137574 -0.933793,0.147278 -0.01702,0.02711 -0.03648,0.05286 -0.05684,0.07752 -0.0075,-0.0046 -0.01442,-0.0091 -0.02119,-0.01395 -0.164461,-0.107367 -0.08887,-0.240931 0,-0.322461 0.03156,-0.03018 0.0629,-0.05224 0.08216,-0.0646 z m 0.929659,0.176216 c 0.0085,0.0018 0.01292,0.0026 0.01292,0.0026 l 0.0047,-0.0072 c 0,0 -0.0064,0.0018 -0.01757,0.0047 z m 2.282031,2.754354 c 0.002,0.0069 0.0031,0.01085 0.0031,0.01085 l -5.17e-4,-0.0072 c 0,0 -6.46e-4,-0.0012 -0.0026,-0.0036 z m -0.8816,2.598291 c -0.0033,0.0048 -0.0052,0.0072 -0.0052,0.0072 h 0.0041 c 0,0 2.13e-4,-0.0024 10e-4,-0.0072 z m -0.718819,0.596863 c -0.0025,0.0021 -0.0041,0.0031 -0.0041,0.0031 l 0.0021,0.001 c 0,0 7.21e-4,-0.0013 0.0021,-0.0041 z m -1.781803,0.497644 c -0.01478,9.73e-4 -0.02274,0.001 -0.02274,0.001 l 0.0041,0.01034 c 0,0 0.0069,-0.0039 0.0186,-0.01137 z M 40.438359,29.59406 c -0.0084,-0.0017 -0.01292,-0.0026 -0.01292,-0.0026 l -0.0052,0.0067 c 0,0 0.0069,-0.0013 0.01809,-0.0041 z m -2.024683,-1.852083 c -7.28e-4,-0.0012 -0.001,-0.0021 -0.001,-0.0021 l -5.16e-4,0.001 z m -0.258382,-0.903821 c -0.0015,-0.0051 -0.0021,-0.0078 -0.0021,-0.0078 v 0.0052 c 0,0 7.93e-4,0.001 0.0021,0.0026 z m 0.882633,-2.598808 c 0.0028,-0.004 0.0041,-0.0062 0.0041,-0.0062 l -0.0031,0.001 c 0,0 -4.12e-4,0.0016 -10e-4,0.0052 z m 0.718819,-0.594795 c 0.0021,-0.0018 0.0034,-0.0029 0.0036,-0.0031 l -0.0016,-10e-4 c 0,0 -8.05e-4,0.0015 -0.0021,0.0041 z m 1.699638,0.280086 c 0.322041,-0.0064 0.638074,0.06392 0.934827,0.195854 -0.0021,-0.0021 -0.0041,-0.0041 -0.0062,-0.0062 0.219622,0.09775 0.428369,0.228636 0.619083,0.384473 -0.0019,-0.0031 -0.0038,-0.0067 -0.0057,-0.0098 0.04293,0.03484 0.0831,0.07328 0.124023,0.110588 0.08502,0.07778 0.167118,0.159208 0.242363,0.246497 0.01339,0.01551 0.02571,0.03227 0.03876,0.04806 0.06011,0.07282 0.118707,0.14674 0.171049,0.224792 -0.0019,-9.08e-4 -0.0031,-0.001 -0.0031,-0.001 0.07672,0.114968 0.143612,0.236001 0.203088,0.360184 0.009,0.01913 0.01838,0.03805 0.02687,0.05736 0.03297,0.07546 0.06391,0.151672 0.08888,0.229444 -0.0039,-0.0034 -0.0062,-0.0052 -0.0062,-0.0052 0.02296,0.07124 0.0444,0.143739 0.06304,0.216524 0.02686,0.123339 0.04283,0.248432 0.04703,0.374138 l -5.17e-4,-5.17e-4 -5.17e-4,-5.17e-4 -5.16e-4,-5.17e-4 c -0.005,-0.0067 -0.0093,-0.02986 -0.0093,-0.05633 0,-0.131351 -0.05285,-0.38486 -0.124024,-0.595313 -0.04056,-0.119925 -0.16245,-0.36945 -0.243912,-0.498677 -0.268904,-0.426575 -0.686405,-0.807582 -1.123446,-1.026294 -0.108609,-0.05435 -0.336614,-0.138674 -0.466638,-0.172083 -0.318863,-0.08193 -0.6924,-0.0924 -1.011308,-0.02842 -0.186918,0.0375 -0.478903,0.142328 -0.672827,0.241329 -0.281641,0.143783 -0.619595,0.426565 -0.849561,0.711068 -0.2697,0.333663 -0.449523,0.703474 -0.5333,1.098641 -0.02822,0.133136 -0.03099,0.170508 -0.03152,0.415479 -6.83e-4,0.295582 0.0073,0.365525 0.06976,0.607714 0.157975,0.612717 0.592688,1.187277 1.183907,1.56528 0.332862,0.21282 0.725042,0.345949 1.084172,0.367936 0.389072,0.02381 0.717117,-0.02743 1.040763,-0.162264 0.06349,-0.02645 0.140015,-0.05735 0.171049,-0.06925 -0.323659,0.163755 -0.67477,0.251425 -1.027327,0.244947 -0.322041,0.0064 -0.637878,-0.06392 -0.934827,-0.195854 0.002,0.002 0.0042,0.0042 0.0062,0.0062 -0.219563,-0.09774 -0.428417,-0.228675 -0.619084,-0.384473 0.0019,0.0032 0.0042,0.0066 0.0062,0.0098 -0.02947,-0.0239 -0.0588,-0.0483 -0.08733,-0.07338 -0.09302,-0.08204 -0.181139,-0.170793 -0.263033,-0.264066 -0.08051,-0.09174 -0.155445,-0.188678 -0.223242,-0.289388 l -5.17e-4,-5.17e-4 c -0.06596,-0.09803 -0.124112,-0.200124 -0.176216,-0.304891 -0.0066,-0.01322 -0.01173,-0.027 -0.01809,-0.04031 -0.04699,-0.09896 -0.08934,-0.199549 -0.122473,-0.302823 0.0032,0.0028 0.0052,0.0041 0.0052,0.0041 -0.0095,-0.02888 -0.01654,-0.0585 -0.02481,-0.08785 -0.01634,-0.05827 -0.0303,-0.117045 -0.04186,-0.176217 -0.02769,-0.143641 -0.0429,-0.290068 -0.04031,-0.434082 -0.0046,-0.159401 0.01291,-0.317653 0.04599,-0.473356 3.35e-4,-0.0016 6.96e-4,-0.0031 0.001,-0.0047 0.0031,-0.01461 0.0053,-0.02937 0.0088,-0.04393 0.02443,-0.102166 0.0578,-0.202375 0.09612,-0.301273 0.0095,-0.02435 0.01869,-0.04876 0.02894,-0.07286 0.02172,-0.05088 0.04403,-0.101672 0.06925,-0.151412 0.0086,-0.01711 0.01838,-0.0337 0.02739,-0.05064 0.02826,-0.05285 0.05692,-0.105274 0.08888,-0.15658 -8.96e-4,7.07e-4 -0.0017,0.0014 -0.0026,0.0021 0.01915,-0.03097 0.03902,-0.06173 0.05943,-0.09198 -1.25e-4,0.0021 0,0.0031 0,0.0031 0.132798,-0.1964 0.292332,-0.377024 0.470256,-0.536401 0.02115,-0.01886 0.04343,-0.03605 0.06511,-0.05426 0.06961,-0.05877 0.141468,-0.114809 0.216008,-0.166398 0.03344,-0.02295 0.06799,-0.04374 0.102319,-0.06511 0.0801,-0.05036 0.160681,-0.09996 0.244946,-0.141077 -0.0069,0.01131 -0.01085,0.01705 -0.01085,0.01705 0.324099,-0.164818 0.676686,-0.252996 1.030428,-0.246496 z m 2.552299,2.382283 c 6.03e-4,0.0076 1e-6,0.01516 5.17e-4,0.02274 -2.73e-4,-0.003 -7.53e-4,-0.01757 -10e-4,-0.01757 -3.44e-4,5e-6 -0.0034,0.0084 -0.0067,0.0186 l -0.0057,0.0186 5.17e-4,0.001 h -5.17e-4 -5.17e-4 -5.16e-4 c 0.0048,-0.01437 0.0094,-0.02884 0.01395,-0.04341 z m 0.0041,0.126608 c 2.91e-4,0.01917 0.0023,0.03817 0.0021,0.05736 -8.09e-4,-0.0012 -2.69e-4,-8.84e-4 -10e-4,-0.0021 4.26e-4,1.9e-5 -6.25e-4,-0.03143 -10e-4,-0.05529 z m -0.01085,0.01188 c -4.46e-4,0.0014 -5.61e-4,0.003 -10e-4,0.0041 -1.52e-4,3.37e-4 -3.6e-4,7.24e-4 -5.17e-4,0.001 -2.02e-4,4.29e-4 -8.28e-4,6.54e-4 -0.001,10e-4 8.29e-4,-0.0016 0.0019,-0.0039 0.0026,-0.0062 z m -0.0062,0.0098 h 5.17e-4 v 5.17e-4 l -0.0026,0.001 0.01034,0.01602 h -5.16e-4 c -0.0028,-0.0045 -0.0093,-0.01447 -0.0093,-0.01447 0.0045,0.255511 -0.04285,0.509366 -0.128674,0.752926 -0.02091,0.0593 -0.04422,0.117797 -0.06976,0.1757 -0.06354,0.144094 -0.139234,0.283774 -0.228409,0.415995 1.35e-4,-0.0023 0,-0.0031 0,-0.0031 -0.06875,0.101679 -0.144081,0.199235 -0.225826,0.291971 -0.0023,0.0026 -0.005,0.0047 -0.0072,0.0072 -0.07561,0.08517 -0.156831,0.16551 -0.241846,0.241329 -0.01595,0.01416 -0.03284,0.02704 -0.04909,0.04082 -0.07348,0.06268 -0.149362,0.122102 -0.22841,0.176734 -0.03235,0.02217 -0.06604,0.04183 -0.09922,0.06253 -0.02666,0.01679 -0.05449,0.03122 -0.08165,0.04703 0.169275,-0.10049 0.382729,-0.262989 0.545187,-0.421163 0.249832,-0.243245 0.420037,-0.475029 0.564306,-0.767912 0.155162,-0.315005 0.239604,-0.63694 0.239779,-0.914673 6e-6,-0.0075 -1.31e-4,-0.01479 0,-0.0217 h 5.17e-4 l 5.16e-4,-5.17e-4 v -5.16e-4 h -5.16e-4 v -5.17e-4 -5.17e-4 h -5.17e-4 c 9.29e-4,-0.04476 0.0044,-0.07611 0.0093,-0.0832 l 5.16e-4,-5.17e-4 h 5.17e-4 v -5.16e-4 h 5.17e-4 5.17e-4 5.16e-4 z m -1.37511,2.220536 c -0.05053,0.02901 -0.09936,0.06192 -0.151412,0.08733 0.0056,-0.0092 0.0093,-0.01486 0.01034,-0.01654 0.04024,-0.01557 0.08856,-0.04026 0.141076,-0.0708 z" />
  </g>
</svg>
